# xmcd
#
# Track frame offsets:
#	150
#	18549
#	32154
#	51387
#	71613
#	88981
#	106104
#	120889
#	135345
#	146151
#	165351
#	178944
#	200768
#	219377
#	232859
#	249689
#	262789
#	286896
#	300934
#	319815
#	336276
#
# Disc length: 4701 seconds
# Revision: 0
# Processed by: cddbd v1.5.2PL0 Copyright (c) Steve Scherf et al.
# Submitted via: dBpowerAMP V12.0
#
DISCID=2a125b15
DTITLE=Lightnin' Hopkins - Eight Classic Albums disc 3
DYEAR=2014
DGENRE=Blues
TTITLE0=Buddy Brown's Blues
TTITLE1=Wine Spodee-o-dee
TTITLE2=Sail on, little girl, sail on
TTITLE3=DC-7
TTITLE4=Death Blues
TTITLE5=Goin' To Dallas To See My Pony Run
TTITLE6=Jailhouse Blues
TTITLE7=Blues In My Bottle
TTITLE8=Beans, Beans, Beans
TTITLE9=Catfish Blues
TTITLE10=My Grandpa Is Old Too
TTITLE11=Walkin' This Road By Myself
TTITLE12=Black Gal
TTITLE13=How Many More Years (I Got To Let You Dog Me Around)
TTITLE14=Baby Don't Tear My Clothes
TTITLE15=Worried Life Blues
TTITLE16=Happy Blues For John Glenn
TTITLE17=Good Morning Little School Girl
TTITLE18=The Devil Jumped The Black Man
TTITLE19=Coffee Blues
TTITLE20=Black Cadillac
EXTD=
EXTT0=
EXTT1=
EXTT2=
EXTT3=
EXTT4=
EXTT5=
EXTT6=
EXTT7=
EXTT8=
EXTT9=
EXTT10=
EXTT11=
EXTT12=
EXTT13=
EXTT14=
EXTT15=
EXTT16=
EXTT17=
EXTT18=
EXTT19=
EXTT20=
PLAYORDER=
